<mxfile host="app.diagrams.net" modified="2023-09-13T23:33:58.604Z" agent="Mozilla/5.0 (Windows NT 10.0; Win64; x64) AppleWebKit/537.36 (KHTML, like Gecko) Chrome/116.0.0.0 Safari/537.36 Edg/116.0.1938.76" etag="N2M80oi0ChhdhnIzOBbt" version="21.7.5" type="github">
  <diagram name="Page-1" id="07NcKx_coQ5YjX-3-cZb">
    <mxGraphModel dx="1042" dy="535" grid="1" gridSize="10" guides="1" tooltips="1" connect="1" arrows="1" fold="1" page="1" pageScale="1" pageWidth="850" pageHeight="1400" math="0" shadow="0">
      <root>
        <mxCell id="0" />
        <mxCell id="1" parent="0" />
        <mxCell id="spdrvm0_88vHu0nkzeN3-1" value="" style="image;points=[];aspect=fixed;html=1;align=center;shadow=0;dashed=0;image=img/lib/allied_telesis/computer_and_terminals/Personal_Computer.svg;" vertex="1" parent="1">
          <mxGeometry x="40" y="234.89" width="110.84" height="150.22" as="geometry" />
        </mxCell>
        <mxCell id="spdrvm0_88vHu0nkzeN3-2" value="" style="ellipse;shape=cloud;whiteSpace=wrap;html=1;" vertex="1" parent="1">
          <mxGeometry x="220" y="280" width="120" height="80" as="geometry" />
        </mxCell>
        <mxCell id="spdrvm0_88vHu0nkzeN3-5" value="" style="image;html=1;image=img/lib/clip_art/computers/Server_Tower_128x128.png" vertex="1" parent="1">
          <mxGeometry x="410" y="195" width="110" height="250" as="geometry" />
        </mxCell>
        <mxCell id="spdrvm0_88vHu0nkzeN3-6" value="" style="endArrow=classic;html=1;rounded=0;" edge="1" parent="1">
          <mxGeometry width="50" height="50" relative="1" as="geometry">
            <mxPoint x="560" y="284.89" as="sourcePoint" />
            <mxPoint x="690" y="220" as="targetPoint" />
          </mxGeometry>
        </mxCell>
        <mxCell id="spdrvm0_88vHu0nkzeN3-7" value="" style="endArrow=classic;html=1;rounded=0;" edge="1" parent="1">
          <mxGeometry width="50" height="50" relative="1" as="geometry">
            <mxPoint x="560" y="340" as="sourcePoint" />
            <mxPoint x="700" y="340" as="targetPoint" />
          </mxGeometry>
        </mxCell>
        <mxCell id="spdrvm0_88vHu0nkzeN3-8" value="" style="endArrow=classic;html=1;rounded=0;" edge="1" parent="1">
          <mxGeometry width="50" height="50" relative="1" as="geometry">
            <mxPoint x="550" y="385.11" as="sourcePoint" />
            <mxPoint x="680" y="435.11" as="targetPoint" />
          </mxGeometry>
        </mxCell>
        <mxCell id="spdrvm0_88vHu0nkzeN3-10" value="" style="image;html=1;image=img/lib/clip_art/computers/Server_128x128.png" vertex="1" parent="1">
          <mxGeometry x="710" y="180" width="80" height="80" as="geometry" />
        </mxCell>
        <mxCell id="spdrvm0_88vHu0nkzeN3-11" value="" style="image;html=1;image=img/lib/clip_art/computers/Server_128x128.png" vertex="1" parent="1">
          <mxGeometry x="720" y="305.11" width="80" height="80" as="geometry" />
        </mxCell>
        <mxCell id="spdrvm0_88vHu0nkzeN3-12" value="" style="image;html=1;image=img/lib/clip_art/computers/Server_128x128.png" vertex="1" parent="1">
          <mxGeometry x="720" y="420" width="80" height="80" as="geometry" />
        </mxCell>
        <mxCell id="spdrvm0_88vHu0nkzeN3-13" value="" style="endArrow=classic;html=1;rounded=0;" edge="1" parent="1" target="spdrvm0_88vHu0nkzeN3-2">
          <mxGeometry width="50" height="50" relative="1" as="geometry">
            <mxPoint x="160" y="320" as="sourcePoint" />
            <mxPoint x="210" y="285" as="targetPoint" />
          </mxGeometry>
        </mxCell>
        <mxCell id="spdrvm0_88vHu0nkzeN3-14" value="" style="endArrow=classic;html=1;rounded=0;" edge="1" parent="1">
          <mxGeometry width="50" height="50" relative="1" as="geometry">
            <mxPoint x="340" y="324" as="sourcePoint" />
            <mxPoint x="410" y="324" as="targetPoint" />
          </mxGeometry>
        </mxCell>
        <mxCell id="spdrvm0_88vHu0nkzeN3-15" value="" style="endArrow=classic;html=1;rounded=0;" edge="1" parent="1">
          <mxGeometry width="50" height="50" relative="1" as="geometry">
            <mxPoint x="410" y="334" as="sourcePoint" />
            <mxPoint x="340" y="334" as="targetPoint" />
          </mxGeometry>
        </mxCell>
        <mxCell id="spdrvm0_88vHu0nkzeN3-16" value="" style="endArrow=classic;html=1;rounded=0;" edge="1" parent="1">
          <mxGeometry width="50" height="50" relative="1" as="geometry">
            <mxPoint x="230" y="330" as="sourcePoint" />
            <mxPoint x="160" y="330" as="targetPoint" />
          </mxGeometry>
        </mxCell>
        <mxCell id="spdrvm0_88vHu0nkzeN3-17" value="Load balancer" style="text;html=1;strokeColor=none;fillColor=none;align=center;verticalAlign=middle;whiteSpace=wrap;rounded=0;" vertex="1" parent="1">
          <mxGeometry x="420" y="205" width="60" height="30" as="geometry" />
        </mxCell>
        <mxCell id="spdrvm0_88vHu0nkzeN3-18" value="Server 1" style="text;html=1;strokeColor=none;fillColor=none;align=center;verticalAlign=middle;whiteSpace=wrap;rounded=0;" vertex="1" parent="1">
          <mxGeometry x="720" y="250" width="60" height="30" as="geometry" />
        </mxCell>
        <mxCell id="spdrvm0_88vHu0nkzeN3-19" value="Server 2" style="text;html=1;strokeColor=none;fillColor=none;align=center;verticalAlign=middle;whiteSpace=wrap;rounded=0;" vertex="1" parent="1">
          <mxGeometry x="730" y="380" width="60" height="30" as="geometry" />
        </mxCell>
        <mxCell id="spdrvm0_88vHu0nkzeN3-20" value="Server 3" style="text;html=1;strokeColor=none;fillColor=none;align=center;verticalAlign=middle;whiteSpace=wrap;rounded=0;" vertex="1" parent="1">
          <mxGeometry x="740" y="490" width="60" height="30" as="geometry" />
        </mxCell>
        <mxCell id="spdrvm0_88vHu0nkzeN3-21" value="Internet" style="text;html=1;strokeColor=none;fillColor=none;align=center;verticalAlign=middle;whiteSpace=wrap;rounded=0;" vertex="1" parent="1">
          <mxGeometry x="250" y="310" width="60" height="30" as="geometry" />
        </mxCell>
        <mxCell id="spdrvm0_88vHu0nkzeN3-22" value="Computer" style="text;html=1;strokeColor=none;fillColor=none;align=center;verticalAlign=middle;whiteSpace=wrap;rounded=0;" vertex="1" parent="1">
          <mxGeometry x="65.42000000000002" y="400" width="60" height="30" as="geometry" />
        </mxCell>
      </root>
    </mxGraphModel>
  </diagram>
</mxfile>
